<?xml version="1.0" encoding="UTF-8" standalone="no"?>
<!-- Created with Inkscape (http://www.inkscape.org/) -->

<svg
   version="1.1"
   id="svg2"
   width="713"
   height="555"
   viewBox="0 0 713 555"
   sodipodi:docname="imjujai_logo_to_vecter.png"
   inkscape:export-filename="imjujai_logo.png"
   inkscape:export-xdpi="96"
   inkscape:export-ydpi="96"
   xmlns:inkscape="http://www.inkscape.org/namespaces/inkscape"
   xmlns:sodipodi="http://sodipodi.sourceforge.net/DTD/sodipodi-0.dtd"
   xmlns="http://www.w3.org/2000/svg"
   xmlns:svg="http://www.w3.org/2000/svg">
  <defs
     id="defs6" />
  <sodipodi:namedview
     id="namedview4"
     pagecolor="#ffffff"
     bordercolor="#000000"
     borderopacity="0.25"
     inkscape:showpageshadow="2"
     inkscape:pageopacity="0.0"
     inkscape:pagecheckerboard="0"
     inkscape:deskcolor="#d1d1d1"
     showgrid="false" />
  <g
     inkscape:groupmode="layer"
     inkscape:label="Image"
     id="g8">
    <g
       id="g2530"
       transform="matrix(1,0,0,1.0072076,1.1875963,-0.17154342)">
      <path
         style="fill:#f6f5f1"
         d="m 593,450.5 c 0,-0.825 0.675,-1.5 1.5,-1.5 0.825,0 1.5,0.675 1.5,1.5 0,0.825 -0.675,1.5 -1.5,1.5 -0.825,0 -1.5,-0.675 -1.5,-1.5 z"
         id="path2544" />
      <path
         style="fill:#a6a6a0"
         d="m 218.99353,534.06566 c -6.9447,-2.11248 -11.76767,-5.98914 -15.74018,-12.65179 -1.6114,-2.70263 -25.84011,-67.94363 -53.84158,-144.98001 L 98.5,236.36772 l -6,-1.75297 C 71.305461,228.42252 48.766373,206.7526 35.174629,179.5 c -4.33426,-8.69056 -9.204058,-21.46466 -9.752525,-25.58212 -0.189174,-1.42017 -0.824127,-3.84508 -1.411007,-5.38869 -0.586879,-1.54361 -0.845296,-3.02832 -0.574259,-3.29936 0.271037,-0.27104 0.08171,-1.26092 -0.420734,-2.19974 -1.247175,-2.33037 -2.434214,-16.71117 -2.224947,-26.9549 0.142273,-6.96429 1.2313,-15.51157 2.621529,-20.57519 0.151004,-0.55 0.604932,-2.35 1.00873,-4 C 26.897881,81.380651 33.675529,69.521999 41.367562,61.849829 45.144721,58.082423 48.819721,55 49.534228,55 50.248736,55 50.983333,54.616229 51.166667,54.147176 51.35,53.678123 55.325,51.884406 60,50.161138 c 7.805038,-2.877043 9.276722,-3.099432 18,-2.720023 12.934437,0.56257 17.7927,2.14789 32.68462,10.665456 6.44,3.68342 13.98167,10.257863 21.8266,19.02733 C 136.95356,82.099763 143,90.602712 143,91.883977 143,92.49779 143.41968,93 143.93261,93 c 0.51294,0 1.24859,1.0125 1.63478,2.25 0.3862,1.2375 0.98357,2.475 1.32751,2.75 2.08641,1.668234 13.73947,30.70246 14.64949,36.5 0.17266,1.1 0.98741,5.375 1.81057,9.5 1.53447,7.68963 1.61417,32.64505 0.12773,40 -0.38904,1.925 -0.78196,3.95 -0.87314,4.5 -0.0912,0.55 -0.51719,1.5625 -0.94669,2.25 -0.42949,0.6875 -0.5493,1.25 -0.26624,1.25 1.45232,0 -5.45297,15.56661 -9.68974,21.84363 l -2.9318,4.34364 51.83251,142.15636 c 49.10276,134.66971 51.82933,142.49937 51.77194,148.66917 -0.0718,7.71631 -2.13594,12.67869 -7.471,17.9607 -6.21885,6.15701 -18.20531,9.43734 -25.915,7.09216 z M 462,534.04209 C 449.13818,531.5821 440.4903,517.28723 443.52313,503.5 c 0.36296,-1.65 21.37915,-60.01825 46.70264,-129.70722 l 46.04271,-126.70723 -1.75118,-3.79277 c -0.96315,-2.08603 -3.08485,-6.63314 -4.71488,-10.1047 -2.71179,-5.77543 -7.47051,-18.55352 -8.26458,-22.19198 -0.18052,-0.82714 -0.80627,-3.30214 -1.39057,-5.5 -2.61862,-9.8501 -3.06186,-28.58921 -0.76416,-32.30698 0.29146,-0.47159 0.76913,-2.2152 1.06149,-3.87468 1.06738,-6.05859 44.87904,-124.929383 47.42819,-128.683231 5.87752,-8.655149 19.56464,-7.847493 26.25575,1.549312 4.20501,5.905385 3.58468,8.261747 -16.93241,64.319479 -10.46759,28.6 -19.18141,52.59062 -19.36405,53.3125 -0.21276,0.84088 2.74439,2.48283 8.22971,4.56953 l 8.56179,3.25702 15.34377,-42.06952 C 598.40641,102.43129 605.87181,82.6 606.5571,81.5 c 0.6853,-1.1 3.12614,-7.157738 5.4241,-13.461639 3.67748,-10.088309 6.13904,-14.077932 9.0188,-14.617424 0.275,-0.05152 1.25173,-0.426724 2.17051,-0.83379 5.77924,-2.56049 17.75925,2.718316 20.22732,8.912853 2.20214,5.527074 1.55535,7.905661 -13.65839,50.22961 -22.25236,61.90509 -23.89399,66.99169 -21.87959,67.79384 6.18688,2.46369 15.37183,5.57816 15.64488,5.30493 0.18048,-0.18061 8.42581,-22.60338 18.32293,-49.82838 9.89713,-27.225 18.95893,-52.065751 20.13733,-55.20167 1.62109,-4.313993 3.02281,-6.245702 5.75936,-7.936983 7.42688,-4.590065 19.17008,-1.532681 23.22668,6.047149 3.07,5.736341 2.85179,6.476764 -22.08234,74.932134 -13.35398,36.66265 -24.86243,67.25401 -25.57433,67.9808 C 642.58246,221.54821 642,222.55557 642,223.06 642,226.05197 620.1833,247 617.06726,247 616.48027,247 616,247.39752 616,247.88337 c 0,0.48585 -0.7875,1.13611 -1.75,1.44501 -0.9625,0.3089 -4.225,2.00843 -7.25,3.77673 -7.51922,4.39544 -16.36747,8.69803 -19.50886,9.48647 -1.43329,0.35973 -3.19932,1.61129 -3.9245,2.78124 -0.72519,1.16995 -22.15404,59.49404 -47.61968,129.60908 -25.46563,70.11505 -47.12146,128.3624 -48.12405,129.43856 -1.0026,1.07617 -1.82291,2.22673 -1.82291,2.55681 0,0.33009 -2.38978,2.04852 -5.31063,3.81873 -5.60625,3.39775 -12.04731,4.51647 -18.68937,3.24609 z"
         id="path2542" />
      <path
         style="fill:#de9c07"
         d="M 272.43264,507.74897 272.36528,496.5 264.3502,475 l -8.01508,-21.5 90.99382,-0.25529 c 50.0466,-0.14041 91.16463,-0.0845 91.37341,0.12431 0.20878,0.20877 -2.71646,8.88859 -6.50053,19.28847 -8.81675,24.2314 -10.64939,31.64662 -9.87387,39.9515 L 422.92475,519 347.71237,518.999 272.5,518.998 272.4326,507.74903 Z M 515.60458,511.25 c 1.36597,-3.7125 6.66054,-18.225 11.7657,-32.25 l 9.2821,-25.5 24.42381,-0.54905 c 16.68641,-0.37512 25.46957,-0.96614 27.72486,-1.86562 1.81557,-0.72412 3.56342,-1.05419 3.8841,-0.73351 0.97146,0.97145 -3.61719,12.07751 -8.19746,19.84057 -12.96908,21.9812 -33.98572,38.14804 -58.84956,45.26943 -13.22187,3.78696 -13.00943,3.87613 -10.03355,-4.21182 z m -349.78049,2.39628 c -18.17605,-6.26631 -33.73127,-17.21686 -45.39642,-31.95813 -6.13405,-7.7516 -14.58399,-23.02347 -15.97247,-28.86758 l -0.63659,-2.67942 4.74963,1.42942 c 3.46584,1.04307 10.45034,1.43081 25.84069,1.43454 l 21.09107,0.005 11.61492,31.99489 c 9.18175,25.2924 11.27661,31.99302 10,31.98595 -0.88821,-0.005 -5.96908,-1.51007 -11.29083,-3.34478 z M 157.44134,75.833465 c -3.82861,-5.610468 -11.3716,-14.62935 -16.82074,-20.111936 l -9.8794,-9.940041 2.8794,-2.393851 c 10.60633,-8.817801 23.1369,-15.4398 38.09532,-20.132139 L 180.5,20.5 h 168 168 l 8.69716,2.730309 c 13.76337,4.320748 23.02755,8.76896 22.23215,10.674802 C 547.06322,34.7823 542.64214,46.75 537.60469,60.5 l -9.15901,25 -182.0315,0.252679 -182.0315,0.25268 z"
         id="path2540" />
      <path
         style="fill:#e48a10"
         d="M 327.5,440.38129 C 300.45984,436.53399 273.76654,426.49733 252.4578,412.16548 236.01556,401.10673 240.5876,410.50935 207.8853,320.5 l -29.0657,-80 1.72162,-8 c 4.43649,-20.61542 15.4801,-45.44509 28.24319,-63.5 C 217.3888,156.82806 235.82806,138.3888 248,129.78441 267.01718,116.34109 291.15783,105.85125 314.65205,100.8221 324.21824,98.774373 328.21762,98.5 348.5,98.5 c 20.28238,0 24.28176,0.274373 33.84795,2.3221 45.29086,9.69493 83.87743,35.37359 108.59574,72.2685 5.64106,8.41994 5.7694,8.76761 6.45997,17.5 1.3298,16.81552 7.28614,38.85498 14.22445,52.63282 l 2.37864,4.72341 -28.17072,77.50886 -28.17073,77.50885 -9.08265,6.48332 c -18.19686,12.98916 -42.63786,23.63821 -65.67336,28.61417 -8.60687,1.85919 -14.04554,2.29162 -31.40929,2.49732 -11.55,0.13683 -22.35,0.0567 -24,-0.17806 z m 45.25218,-43.88455 c 25.73197,-4.91001 47.32762,-16.54976 66.76121,-35.98335 25.91885,-25.91885 37.86823,-54.79604 37.86823,-91.51339 0,-36.71735 -11.94938,-65.59454 -37.86823,-91.51339 C 413.59454,151.56776 384.71735,139.61838 348,139.61838 c -36.71735,0 -65.59454,11.94938 -91.51339,37.86823 -25.91885,25.91885 -37.86823,54.79604 -37.86823,91.51339 0,27.78281 6.60027,49.96328 21.5712,72.49089 5.9195,8.90741 22.37229,26.09634 30.81042,32.18894 18.19407,13.13672 39.35231,21.55274 61.00144,24.26425 9.93018,1.24374 30.47087,0.5142 40.75074,-1.44734 z"
         id="path2538" />
      <path
         style="fill:#db5717"
         d="M 106.7977,451.0692 C 91.019111,446.02417 78.793298,433.78347 73.985242,418.21679 72.073754,412.02812 72,408.76234 72,330.31133 c 0,-44.8129 0.339607,-81.328 0.754682,-81.14466 0.415075,0.18333 2.81595,1.15366 5.335277,2.15628 l 4.580596,1.82295 36.164725,99.28743 C 138.72587,407.04141 155,452.00858 155,452.36038 c 0,0.35179 -9.5625,0.61542 -21.25,0.58584 -17.70786,-0.0448 -22.20051,-0.35769 -26.9523,-1.87702 z m 148.72376,0.1808 c -0.38088,-0.9625 -4.21426,-11.425 -8.51863,-23.25 -4.30436,-11.825 -8.31427,-22.76256 -8.9109,-24.3057 -1.04594,-2.70524 -0.87905,-2.64753 4.66165,1.61205 20.56649,15.81111 45.54175,27.22965 71.89847,32.87155 9.56619,2.04773 13.56557,2.3221 33.84795,2.3221 20.28238,0 24.28176,-0.27437 33.84795,-2.3221 23.1224,-4.94956 48.05466,-15.69776 65.52602,-28.24801 4.60568,-3.30841 8.55168,-5.83758 8.76888,-5.62038 0.2172,0.21721 -3.55109,11.25547 -8.37397,24.52949 l -8.76888,24.13457 -91.64301,0.0132 c -86.35566,0.0125 -91.68297,-0.0878 -92.33553,-1.73678 z m 281.92665,0 c 0.32059,-0.9625 14.41618,-39.775 31.32352,-86.25 l 30.74064,-84.5 5.99386,-3.02454 c 3.29663,-1.6635 8.58137,-4.50902 11.74387,-6.32339 l 5.75,-3.29885 v 71.96805 c 0,68.96464 -0.0829,72.2363 -1.98524,78.39552 -4.81792,15.59861 -17.22139,27.98283 -32.8701,32.81908 -5.51768,1.70525 -9.31589,1.96413 -28.81738,1.96413 -20.94782,0 -22.42276,-0.11797 -21.87917,-1.75 z m -362.22985,-220.55738 -3.28174,-9.30363 3.37994,-7.4445 c 7.46864,-16.45005 9.68663,-27.90931 9.66699,-49.94449 -0.01,-11.06116 -0.58078,-18.61904 -1.99358,-26.39137 C 180.85336,125.85487 172.85354,102.50015 167.45295,92.25 L 164.15995,86 H 346.07997 C 446.13599,86 528,86.17642 528,86.392045 528,86.60767 522.14054,102.88223 514.97899,122.55773 502.41152,157.08531 498,171.0578 498,176.33483 c 0,6.06142 -1.17678,5.53197 -6.98982,-3.14483 C 466.22176,136.18975 427.68994,110.52797 382.34795,100.8221 372.78176,98.774373 368.78238,98.5 348.5,98.5 c -20.28238,0 -24.28176,0.274373 -33.84795,2.3221 C 291.15783,105.85125 267.01718,116.34109 248,129.78441 235.82806,138.3888 217.3888,156.82806 208.78441,169 c -12.66767,17.91993 -23.64098,42.52171 -28.21185,63.25 -0.93994,4.2625 -1.79079,7.74916 -1.89077,7.74813 -0.1,-0.001 -1.65857,-4.18851 -3.46353,-9.30551 z"
         id="path2536" />
      <path
         style="fill:#ffffff"
         d="m 213,553.56903 c -6.39544,-1.77955 -11.79599,-4.73759 -18.25403,-9.99828 C 190.76265,540.32596 188.23281,539 186.02529,539 181.16783,539 168.3786,536.14925 158.5,532.86454 129.37132,523.17903 103.03808,499.67543 89.928889,471.66173 87.286404,466.01487 85.851814,464.2948 81.084594,461.05745 69.757446,453.36533 59.350003,439.52452 54.723525,426 L 52.5,419.5 52.229576,327.62505 51.959151,235.75009 42.908208,226.18652 C 23.186977,205.34832 9.422353,178.95926 3.5808404,150.78946 -2.6386203,120.79706 0.0187141,91.978777 11.087967,69.376103 20.334994,50.494295 33.527658,38.041675 51.43366,31.293608 61.426865,27.527562 61.605347,27.500304 76,27.541809 c 15.228567,0.04391 22.91744,1.403047 31.7525,5.612789 l 4.25251,2.026239 5.24749,-4.718135 C 129.38173,19.557054 143.97866,10.94548 158.5,6.128408 178.11304,-0.37770286 166.40306,0 348.5,0 c 182.09694,0 170.38696,-0.37770286 190,6.128408 4.95,1.642032 12.29705,4.759881 16.32678,6.928552 8.15293,4.387644 8.97235,4.525686 14.67322,2.471876 12.83911,-4.62545 31.28693,1.528894 40.3802,13.471164 2.03597,2.673855 4.07441,4.368336 5.02313,4.175554 5.13145,-1.042721 20.15468,-1.238958 23.59667,-0.308224 5.84005,1.57918 16.50857,8.983167 19.98534,13.869885 2.47848,3.483597 3.4593,4.149709 5.51466,3.745218 12.16747,-2.39454 21.88128,-1.225838 31.28522,3.764036 6.61502,3.510031 10.53968,7.590578 14.46587,15.040446 2.48439,4.714086 2.74124,6.170289 2.68333,15.213085 l -0.0641,10 -24.70957,67.33615 c -15.94033,43.43907 -25.91612,69.2223 -28.10934,72.65086 -1.86988,2.9231 -6.34878,8.44081 -9.95311,12.26159 l -6.55332,6.94687 -0.27252,82.90226 c -0.2719,82.71568 -0.27751,82.9169 -2.49603,89.40227 -4.38051,12.80548 -14.9156,27.21554 -24.93882,34.1117 -3.38577,2.32946 -5.06883,4.60189 -7.82241,10.56166 C 594.21559,499.45873 568.04681,523.04 538.5,532.86454 527.17113,536.63147 515.66023,539 508.68204,539 c -4.71165,0 -5.84886,0.41548 -8.89552,3.25 -11.51602,10.71415 -25.82484,14.66025 -42.35286,11.68011 -6.61013,-1.19186 -17.19266,-6.92146 -21.87075,-11.84126 L 432.62582,539 h -85.1386 -85.13859 l -2.36663,2.51916 c -3.76631,4.00906 -11.10762,8.29717 -18.81496,10.98995 -8.0655,2.81792 -20.20707,3.2748 -28.16704,1.05992 z m 22.23618,-20.73542 c 10.95099,-3.99293 17.03759,-12.45031 17.14335,-23.82081 0.0574,-6.1698 -2.66918,-13.99946 -51.77194,-148.66917 l -51.83251,-142.15636 2.9318,-4.34364 C 155.94365,207.56661 162.84894,192 161.39662,192 c -0.28306,0 -0.16325,-0.5625 0.26624,-1.25 0.4295,-0.6875 0.8555,-1.7 0.94669,-2.25 0.0912,-0.55 0.4841,-2.575 0.87314,-4.5 1.48644,-7.35495 1.40674,-32.31037 -0.12773,-40 -0.82316,-4.125 -1.63791,-8.4 -1.81057,-9.5 C 160.63437,128.70246 148.98131,99.668234 146.8949,98 146.55096,97.725 145.95359,96.4875 145.56739,95.25 145.1812,94.0125 144.44555,93 143.93261,93 143.41968,93 143,92.49779 143,91.883977 c 0,-1.281265 -6.04644,-9.784214 -10.48878,-14.750076 -7.84493,-8.769467 -15.3866,-15.34391 -21.8266,-19.02733 C 95.7927,49.589005 90.934437,48.003685 78,47.441115 69.276722,47.061706 67.805038,47.284095 60,50.161138 55.325,51.884406 51.35,53.678123 51.166667,54.147176 50.983333,54.616229 50.248736,55 49.534228,55 48.819721,55 45.144721,58.082423 41.367562,61.849829 33.675529,69.521999 26.897881,81.380651 24.421416,91.5 c -0.403798,1.65 -0.857726,3.45 -1.00873,4 -1.390229,5.06362 -2.479256,13.6109 -2.621529,20.57519 -0.209267,10.24373 0.977772,24.62453 2.224947,26.9549 0.502441,0.93882 0.691771,1.9287 0.420734,2.19974 -0.271037,0.27104 -0.01262,1.75575 0.574259,3.29936 0.58688,1.54361 1.221833,3.96852 1.411007,5.38869 0.548467,4.11746 5.418265,16.89156 9.752525,25.58212 10.325757,20.70402 27.431766,40.12642 42.87503,48.68089 C 82.697346,230.75538 89.2,233.65062 92.5,234.61475 l 6,1.75297 50.91177,140.06614 c 28.00147,77.03638 52.23018,142.27738 53.84158,144.98001 7.22,12.10932 18.77559,16.23534 31.98283,11.41974 z M 480.68937,530.796 C 483.61022,529.02579 486,527.30736 486,526.97727 c 0,-0.33008 0.82031,-1.48064 1.82291,-2.55681 1.00259,-1.07616 22.65842,-59.32351 48.12405,-129.43856 25.46564,-70.11504 46.89449,-128.43913 47.61968,-129.60908 0.72518,-1.16995 2.49121,-2.42151 3.9245,-2.78124 3.14139,-0.78844 11.98964,-5.09103 19.50886,-9.48647 3.025,-1.7683 6.2875,-3.46783 7.25,-3.77673 0.9625,-0.3089 1.75,-0.95916 1.75,-1.44501 C 616,247.39752 616.48027,247 617.06726,247 620.1833,247 642,226.05197 642,223.06 c 0,-0.50443 0.58246,-1.51179 1.29436,-2.23857 0.7119,-0.72679 12.22035,-31.31815 25.57433,-67.9808 24.93413,-68.45537 25.15234,-69.195793 22.08234,-74.932134 -4.0566,-7.57983 -15.7998,-10.637214 -23.22668,-6.047149 -2.73655,1.691281 -4.13827,3.62299 -5.75936,7.936983 -1.1784,3.135919 -10.2402,27.97667 -20.13733,55.20167 -9.89712,27.225 -18.14245,49.64777 -18.32293,49.82838 -0.27305,0.27323 -9.458,-2.84124 -15.64488,-5.30493 -2.0144,-0.80215 -0.37277,-5.88875 21.87959,-67.79384 C 644.95318,69.405661 645.59997,67.027074 643.39783,61.5 640.92976,55.305463 628.94975,50.026657 623.17051,52.587147 622.25173,52.994213 621.275,53.369418 621,53.420937 c -2.87976,0.539492 -5.34132,4.529115 -9.0188,14.617424 C 609.68324,74.342262 607.2424,80.4 606.5571,81.5 c -0.68529,1.1 -8.15069,20.93129 -16.58975,44.06953 l -15.34377,42.06952 -8.56179,-3.25702 c -5.48532,-2.0867 -8.44247,-3.72865 -8.22971,-4.56953 0.18264,-0.72188 8.89646,-24.7125 19.36405,-53.3125 20.51709,-56.057732 21.13742,-58.414094 16.93241,-64.319479 -6.69111,-9.396805 -20.37823,-10.204461 -26.25575,-1.549312 -2.54915,3.753848 -46.36081,122.624641 -47.42819,128.683231 -0.29236,1.65948 -0.77003,3.40309 -1.06149,3.87468 -2.2977,3.71777 -1.85446,22.45688 0.76416,32.30698 0.5843,2.19786 1.21005,4.67286 1.39057,5.5 0.79407,3.63846 5.55279,16.41655 8.26458,22.19198 1.63003,3.47156 3.75173,8.01867 4.71488,10.1047 l 1.75118,3.79277 -46.04271,126.70723 C 464.90228,443.48175 443.88609,501.85 443.52313,503.5 c -1.70323,7.74286 0.33066,16.69335 5.10008,22.44382 7.55996,9.11501 21.54167,11.23069 32.06616,4.85218 z M 422.33551,512.25 c -0.40092,-4.93707 -0.0214,-8.76437 1.41288,-14.25 1.07856,-4.125 21.83258,-62.06527 46.12004,-128.75615 l 44.15903,-121.25615 -2.389,-4.74385 c -3.9041,-7.75241 -9.51454,-24.35568 -11.79136,-34.89477 -2.96184,-13.71 -2.98008,-30.89408 -0.0445,-41.92072 1.60948,-6.04551 43.66222,-123.065055 47.62423,-132.523249 0.79834,-1.905814 -8.46215,-6.352746 -22.22968,-10.674802 L 516.5,20.5 h -168 -168 l -8.78408,2.755498 c -14.96326,4.693856 -27.48548,11.312342 -38.10551,20.140265 l -2.88959,2.401978 9.56675,9.566748 c 16.44869,16.448695 26.85014,33.175979 35.59585,57.244141 6.83749,18.81672 9.08229,31.49398 9.10003,51.39137 0.0196,21.97474 -1.79175,31.6189 -9.12291,48.57335 l -3.92335,9.07334 L 222.2186,359.57335 272.5,497.5 V 508.25 519 h 75.19182 75.19182 z M 332.00144,397.94408 C 310.35231,395.23257 289.19407,386.81655 271,373.67983 262.56187,367.58723 246.10908,350.3983 240.18958,341.49089 225.21865,318.96328 218.61838,296.78281 218.61838,269 c 0,-36.71735 11.94938,-65.59454 37.86823,-91.51339 25.91885,-25.91885 54.79604,-37.86823 91.51339,-37.86823 36.71735,0 65.59454,11.94938 91.51339,37.86823 25.91885,25.91885 37.86823,54.79604 37.86823,91.51339 0,36.71735 -11.94938,65.59454 -37.86823,91.51339 -19.43359,19.43359 -41.02924,31.07334 -66.76121,35.98335 -10.27987,1.96154 -30.82056,2.69108 -40.75074,1.44734 z M 371.5,358.07724 c 32.06082,-8.50713 56.72304,-33.22437 65.73213,-65.87877 3.05167,-11.06111 3.05167,-34.33583 0,-45.39694 -7.39734,-26.81245 -24.37082,-47.49041 -48.73213,-59.36799 -14.47975,-7.05973 -22.35213,-8.78961 -40,-8.78961 -17.64787,0 -25.52025,1.72988 -40,8.78961 -19.7718,9.63992 -33.84827,24.05237 -43.14576,44.17556 -6.1603,13.33318 -7.71031,20.95041 -7.71031,37.8909 0,12.20871 0.39523,16.43258 2.12394,22.69847 9.53067,34.54493 35.40813,59.19659 70.23213,66.90525 11.28465,2.49798 29.95805,2.0361 41.5,-1.02648 z m 154.13813,157.38458 c 28.83858,-8.25981 52.35129,-28.62565 64.03165,-55.46182 1.80364,-4.14394 3.97585,-7.6496 4.85437,-7.83432 0.87451,-0.18387 1.44519,-1.08387 1.26818,-2 -0.21194,-1.09685 1.56144,-2.90145 5.19291,-5.28434 9.76022,-6.40444 16.57559,-15.49245 20.05063,-26.73668 C 622.91098,412.07739 623,408.52737 623,339.82127 v -71.96805 l -5.75,3.29885 c -3.1625,1.81437 -8.44729,4.65989 -11.74398,6.32339 l -5.99399,3.02454 -40.70764,112 c -22.3892,61.6 -41.82718,115.0375 -43.19552,118.75 -2.98092,8.08767 -3.1926,7.99877 10.02926,4.21182 z M 130.71749,385.0751 82.681832,253.15021 78.095598,251.3251 C 75.573169,250.3213 73.169757,249.35 72.754682,249.16667 72.339607,248.98333 72,285.49843 72,330.31133 c 0,78.45101 0.07375,81.71679 1.985242,87.90546 3.814214,12.34899 12.957645,23.36672 24.335205,29.32363 4.887563,2.55897 5.489413,3.2737 7.516743,8.92655 6.95266,19.38622 24.32192,39.25411 43.87879,50.19094 6.55346,3.6649 24.19532,10.31547 27.4106,10.33315 1.26581,0.007 -9.02731,-29.25082 -46.40909,-131.91596 z"
         id="path2534" />
      <path
         style="fill:#bf2727"
         d="m 330,359.10372 c -34.824,-7.70866 -60.70146,-32.36032 -70.23213,-66.90525 -1.72871,-6.26589 -2.12394,-10.48976 -2.12394,-22.69847 0,-16.94049 1.55001,-24.55772 7.71031,-37.8909 9.29749,-20.12319 23.37396,-34.53564 43.14576,-44.17556 14.47975,-7.05973 22.35213,-8.78961 40,-8.78961 17.64787,0 25.52025,1.72988 40,8.78961 24.36131,11.87758 41.33479,32.55554 48.73213,59.36799 3.05167,11.06111 3.05167,34.33583 0,45.39694 -9.00909,32.6544 -33.67131,57.37164 -65.73213,65.87877 -11.54195,3.06258 -30.21535,3.52446 -41.5,1.02648 z"
         id="path2532" />
    </g>
  </g>
</svg>
